<?xml version="1.0" standalone="no"?>
<!DOCTYPE svg PUBLIC "-//W3C//DTD SVG 20010904//EN"
 "http://www.w3.org/TR/2001/REC-SVG-20010904/DTD/svg10.dtd">
<svg version="1.0" xmlns="http://www.w3.org/2000/svg"
 width="1155.000000pt" height="1000.000000pt" viewBox="0 0 1155.000000 1000.000000"
 preserveAspectRatio="xMidYMid meet">
<metadata>
Created by potrace 1.16, written by Peter Selinger 2001-2019
</metadata>
<g transform="translate(0.000000,1000.000000) scale(0.238636,-0.206612)"
fill="#000000" stroke="none">
<path d="M57 4248 c-8 -31 -9 -4132 -1 -4152 6 -15 192 -16 2085 -16 l2079 0
0 2095 0 2095 -2079 0 -2079 0 -5 -22z m753 -703 c36 -18 68 -78 104 -195 15
-46 32 -88 39 -92 17 -10 34 8 48 50 22 70 109 231 129 242 32 17 94 9 98 -13
5 -25 -185 -458 -210 -479 -20 -18 -74 -24 -94 -10 -16 10 -34 48 -134 278
-49 112 -87 211 -84 219 8 20 66 20 104 0z m2468 -10 c16 -14 58 -72 92 -129
99 -168 110 -166 110 21 0 121 0 123 24 129 13 3 35 4 47 2 l24 -3 3 -252 2
-253 -24 -6 c-46 -11 -94 13 -123 64 -76 133 -178 267 -194 256 -5 -3 -9 -69
-9 -147 0 -78 -4 -148 -8 -154 -14 -22 -67 -27 -85 -8 -15 14 -17 45 -17 249
0 167 3 235 12 244 7 7 36 12 64 12 41 0 59 -5 82 -25z m-944 9 c19 -7 22 -74
4 -92 -8 -8 -46 -12 -103 -12 -97 0 -115 -7 -115 -46 0 -46 61 -66 128 -42 30
11 35 11 48 -7 18 -24 18 -69 1 -83 -7 -6 -46 -12 -87 -14 l-75 -3 0 -45 0
-45 105 -5 105 -5 3 -47 3 -48 -165 0 -166 0 0 250 0 250 149 0 c82 0 156 -3
165 -6z m-54 -1129 c41 -22 102 -87 121 -130 21 -45 25 -139 8 -198 -25 -91
-138 -167 -248 -167 -47 0 -72 7 -122 33 -53 27 -69 42 -97 89 -61 103 -53
204 24 305 60 79 225 114 314 68z m-1182 -28 c23 -15 54 -46 69 -70 25 -37 28
-53 31 -140 4 -95 3 -98 -28 -147 -24 -38 -46 -56 -92 -80 -58 -29 -67 -30
-188 -30 -85 0 -130 4 -138 12 -9 9 -12 78 -12 251 l0 238 158 -3 c154 -3 160
-4 200 -31z m2390 -2 c33 -29 42 -44 48 -80 9 -64 -3 -130 -32 -164 -35 -42
-30 -66 26 -129 61 -68 61 -86 1 -90 -56 -4 -109 31 -142 95 -24 46 -56 70
-82 60 -10 -4 -16 -26 -19 -72 -4 -73 -13 -85 -65 -85 -59 0 -63 17 -63 260 0
155 3 219 12 228 8 8 54 12 143 12 l131 0 42 -35z m-33 -1026 c50 -28 102 -60
118 -71 l27 -19 2 -142 1 -142 6 135 c6 138 11 160 36 160 29 0 37 -40 33
-175 -3 -123 -5 -135 -26 -158 -13 -14 -43 -30 -68 -37 -24 -7 -57 -25 -72
-41 -30 -31 -70 -44 -91 -30 -29 19 4 50 118 113 29 16 30 18 16 45 -9 17 -15
56 -15 99 0 75 -9 94 -47 94 -13 0 -55 21 -94 47 -93 62 -118 62 -224 0 -80
-47 -135 -60 -135 -33 0 18 33 41 141 100 92 49 122 55 172 30 l32 -15 -25 20
c-14 11 -28 21 -31 21 -10 0 -20 31 -13 41 12 19 54 7 139 -42z m-2471 -64 c8
-8 19 -15 25 -15 6 0 12 -6 12 -12 8 -84 8 -151 3 -305 l-6 -183 -54 0 -54 0
0 58 c0 31 -2 144 -3 250 -2 178 -1 192 15 192 10 0 18 7 18 15 0 8 6 15 14
15 8 0 21 -7 30 -15z m1086 0 c31 -16 65 -57 95 -116 29 -57 89 -142 103 -147
9 -3 12 24 12 112 0 147 7 166 59 166 68 0 71 -11 71 -266 0 -247 2 -242 -70
-251 -54 -7 -61 0 -171 174 -119 189 -122 188 -129 -17 l-5 -155 -32 -3 c-18
-2 -41 2 -53 8 -19 10 -20 19 -20 248 0 172 3 241 12 250 17 17 93 15 128 -3z
m1254 -43 c2 -4 1 -13 -3 -20 -8 -13 -104 -74 -163 -104 l-37 -18 -3 -133 -3
-132 -27 -3 -28 -3 0 143 c0 102 4 149 13 162 7 10 53 40 102 67 84 45 137 60
149 41z m-134 -253 c0 -103 9 -149 29 -149 5 0 48 -24 97 -53 66 -39 90 -59
92 -77 4 -21 1 -22 -33 -17 -39 6 -196 88 -225 117 -15 15 -17 32 -13 131 5
144 8 159 33 159 19 0 20 -7 20 -111z m142 -126 c43 -25 80 -49 84 -54 3 -5
17 -6 32 -3 39 10 163 73 189 96 26 24 53 18 53 -12 0 -14 -18 -29 -67 -54
-38 -19 -88 -49 -113 -65 -25 -17 -57 -31 -71 -31 -30 0 -224 112 -233 135 -3
8 -3 22 0 30 8 21 30 13 126 -42z"/>
<path d="M2120 2314 c-19 -8 -47 -27 -62 -41 -25 -24 -28 -34 -28 -96 0 -65 2
-71 34 -103 31 -31 39 -34 95 -34 58 0 64 2 106 41 40 37 45 46 45 86 0 24 -6
59 -14 77 -27 66 -111 99 -176 70z"/>
<path d="M860 2290 c-8 -14 -8 -32 1 -62 8 -33 8 -55 -2 -96 -18 -75 -9 -86
71 -90 113 -5 160 32 160 127 -1 101 -44 141 -152 141 -57 0 -69 -3 -78 -20z"/>
<path d="M3290 2249 l0 -61 55 4 c59 5 84 24 85 65 0 32 -37 53 -92 53 l-48 0
0 -61z"/>
</g>
</svg>
